<?xml version="1.0" encoding="utf-8"?>
<!-- Generator: Adobe Illustrator 19.2.1, SVG Export Plug-In . SVG Version: 6.00 Build 0)  -->
<svg version="1.1" id="Capa_1" xmlns="http://www.w3.org/2000/svg" xmlns:xlink="http://www.w3.org/1999/xlink" x="0px" y="0px"
	 width="432.48px" height="145.57px" viewBox="0 0 432.48 145.57" enable-background="new 0 0 432.48 145.57" xml:space="preserve">
<g>
	<g>
		<g>
			<g>
				<circle fill="#FFFFFF" cx="72.8" cy="75.08" r="61.79"/>
				<g>
					<linearGradient id="SVGID_1_" gradientUnits="userSpaceOnUse" x1="72.8035" y1="8.5391" x2="72.8035" y2="85.7071">
						<stop  offset="0" style="stop-color:#FBBB1C"/>
						<stop  offset="1" style="stop-color:#BD2B0B"/>
					</linearGradient>
					<circle fill="url(#SVGID_1_)" cx="72.8" cy="74.89" r="59.92"/>
					<circle fill="none" cx="72.85" cy="74.89" r="59.92"/>
					<path opacity="0.12" fill="#822000" d="M72.85,16.98c32.75,0,59.35,26.29,59.89,58.91c0-0.33,0.03-0.67,0.03-1
						c0-33.09-26.83-59.92-59.92-59.92c-33.09,0-59.92,26.82-59.92,59.92c0,0.34,0.02,0.67,0.03,1
						C13.5,43.27,40.1,16.98,72.85,16.98z"/>
				</g>
			</g>
			<g>
				<defs>
					<circle id="SVGID_2_" cx="72.85" cy="74.89" r="59.92"/>
				</defs>
				<clipPath id="SVGID_3_">
					<use xlink:href="#SVGID_2_"  overflow="visible"/>
				</clipPath>
				<g clip-path="url(#SVGID_3_)">
					<g>
						<path fill="#FFFFFF" d="M46.5,34.62c0.95-1.11,2.72-1.87,3.59-1.03s1.09,2.43,0.27,3.5c-0.67,0.87-2.97,1.88-4.06,0.76
							C45.27,36.81,45.9,35.32,46.5,34.62z"/>
						<g>
							<path fill="#FFFFFF" d="M121.38,93.14c4.91,2.21,13.68-0.06,15.98-1.51c2.7-1.7,2.43-4.43-0.85-6.01s-44.49-16.47-46.72-17.3
								c0.48-1.35-0.47-3.94-1.85-4.6c-1.11-0.53-14.89-5.76-24.75-9.79c-2.71-1.11-6.39-3.22-7.01-6.77
								c-1.18,5.14,2.49,7.91,4.46,8.77c2.35,1.03,23.61,9.64,25.28,10.41c1,0.46,1.32,2.29,0.58,3.89
								c7.02,2.63,44.66,16.51,46.39,17.38c1.73,0.87,1.89,1.76-0.02,2.2c-2.56,0.59-6.84,1.59-11.92-0.48
								c-3.21-1.31-25.23-10.13-29.19-11.52c3.05,1.79,20.95,10.83,24.95,12.77c-2.86,2.06-18.95-1.65-23.53-4.31
								C102.39,95.02,119.03,95.45,121.38,93.14z M78.98,80.05c3.38,1,7.52-0.13,9.78-2.88c-6.02,2.38-28.31-6.6-29.98-19.36
								c-0.82,6.83,2.82,11.66,5.17,13.44c-1.74,1.53-2.48,3.8-2.28,6.3c-2.5-1.25-4.42-6.9-4.06-10.44
								c-2.09,0.94-2.87,2.26-3.92,4.14c-0.71-3.28,0.16-6.96,1.89-8.64c-1.13-0.34-2.39-0.4-3.38-0.22
								c0.48-1.36,1.69-2.99,3.91-4.51c-2.91,0.22-7.44,2.97-8.12,7.17c1.3-0.29,3.07-0.1,4.09,0.21
								c-1.31,3.08-1.33,8.17,1.36,12.18c0.16-1.42,1-4.01,2.65-5.24c-0.29,3.73,2.39,9.85,8,11.01c-0.06-2.05,0.15-4.41,1.06-6.01
								c2.47,9.61,8.06,13.41,13.95,12.94c-2.35-1.34-5.25-4.13-5.61-8.36c3.83,6.08,18.98,10.21,22.94,8.48
								C89.89,88.73,81.24,84.81,78.98,80.05z M71.78,27.24c2.09-0.07,3.12,0.02,4.09,0.15c-9.03,3.92-16.49,5.25-19.48,9.77
								c-0.46-1.24,0.04-3.53,1.07-5.16c-3.28,1.29-4.6,5.13-3.91,10.25c-2.34,3.47-2.87,8.44,1.2,13.68
								C50.83,42.87,62.94,37,78.03,30.3c-1.3-0.57-3.84-0.69-3.84-0.69c1.29-0.82,2.98-1.83,4.95-2.7
								c-2.28-0.58-4.99-1.18-9.17-1.14L71.78,27.24z M84.37,101.95c0.72,1.25,3.49,2.17,5.95,1.86c-1,3.53-6.93,4.72-9.83,4.09
								c7.61,8.4,6.12,19.01,19.54,17.84c-7.58-1.25-10.66-9.81-11.18-14.29c3.11,3.89,8.12,5.42,11.45,5.37
								c-1.89-3.58-2.96-6.83-3.17-11.21c11.93,8.03,23.09,11.41,32.94,14.52c1.71,0.54,1.22,2.21,0.08,2.78
								c-4.82,2.37-20.59,1.26-26.29-5.97c3.68,7.23,11.95,9.1,20.37,10.18c0.04,0.5,0.08,3.47-2.92,3.17
								c-5.58-0.56-15.75-1.5-21.57-10.3c2.4,9.61,17.91,13.25,22.56,14.52c2.15,0.58,5.14,0.55,6.21-7.23
								c2.84-0.55,5.18-2.07,6.17-3.32c1.02-1.28,3.26-5.68-0.82-6.46c-4.69-0.9-21.46-6.03-32.82-13.64
								c-5-3.35-5.07-8.01-9.21-11.52C93.65,99.29,88.65,101.79,84.37,101.95z M77.79,92.83c2.98,8.96-1.35,10.81-5.67,10.56
								c-4.46-0.26-6.56-2.67-7.33-7.61c2.05,0.09,4.92-0.48,6.74-2.09C50.41,91.2,35.48,73.19,35.75,65.76
								c2.14,2.22,7.34,2.96,10.16-0.02c-3.7-0.93-6.88-5.31-6.52-9.2c2.77,2.32,5.96,1.07,7.14-1.38
								c-5.43,1.14-10.6-7.23-7.49-16.06C41.98,30.71,50.13,28,55.24,29.06c-0.54,0.78-0.8,1.93-0.35,3.32
								c1.41-2.35,4.45-3.64,8.51-4.36l-1.84-1.5c-1.27,0.19-2.4,0.56-3.72,1.14c-5.84-2.57-18.62-0.69-27.21,15.52
								c1.37-1.12,3.13-1.84,3.76-1.9c-2.32,3.58-5.09,9.57-5.95,14.63c0.99-0.9,2.41-1.7,3.66-2.01
								c-3.31,13.83,5.68,28.68,16.17,34.94c-0.31,3.09,0.54,4.83,3.28,7.92c-0.22,0.32-1.04,1.37-1.53,2.05
								c-0.25,0.35-0.65,0.92-1.44,0.76c-1.39-0.29-19.33-5.29-20.93-6.53c-0.78-3.66-5.73-7.32-9.71-5.53
								c-1.69-0.44-2.46,0.66-2.81,1.5c0.97-0.61,2.1-0.31,2.62,0.19c0.6,1.75,3.83-1.55,6.55,3.26c-1.69-0.5-7.61-1.77-8.43,0.03
								c-0.75,0.07-1.91,0.09-2.32,1.68c0.94-0.43,1.69-0.48,2.34-0.28c1.06,1.62,8.28-0.48,11.99,2.71
								c3.25,3.33,0.92,5.09,3.12,6.06c-0.08,1.14-0.97,1.45-1.82,1.65c1.12,0.61,2.67,0.61,3.36-1.21c2.05-0.47,0.5-4.88-1.67-6.12
								c4.12,1.5,14.65,4.55,17.58,5.16c1.5,0.31,2.64-0.01,3.32-0.94c0.5-0.69,1.32-1.5,2-2.54c1.54,1.17,2.67,1.37,3.99,1.16
								c-0.31-2.55,0.57-4.79,2.15-5.91c0.86,9.61,5.31,13.81,10.63,13.97c0.84,0.93,3.71,6.21,4.02,6.78
								c0.29,0.52,0.71,1.53,0.05,1.88c-1.14,0.59-15.05,3.84-19.47,4.91c-2.21-1.95-9.39-4.37-10.43-0.22
								c-1.52,1.18-1.5,2.39-0.55,3.45c-0.12-1.36,0.23-1.59,1.39-2.52c1.79,0.87,2.42-1.83,6.64,0.46
								c-3.58,1.33-7.41,2.98-6.51,6.03c-0.54,0.64-0.43,2.25-0.12,3.23c0.62-0.56,0.97-1.33,1.24-2.52
								c1.64,0.48,0.3-2.19,8.37-4.87c5.04,1.41,5.81,4.98,7.21,5.09c0.74,1.02,0.1,2.27-0.7,3.02c2.2-0.01,2.86-2.15,2.08-3.33
								c1.79-2.84-3.36-5.57-5.27-5.67c4.03-1.08,16.44-4.01,18.56-5.01c1.69-0.79,1.77-2.29,0.73-4.06
								c-0.45-0.77-2.78-5.61-3.34-6.61C83.92,106.59,82.11,95.75,77.79,92.83z"/>
							<path fill="#FFFFFF" d="M118.98,52.32c-0.24-6.22-4.16-7.22-6.78-7.42c-1.36-0.1-2.2-0.1-3.03-0.15
								c-2.78-2-7.97-4.7-8.65-5.14c-0.8-0.52-2.33-1.39-4.31-1.74c1.49-0.14,2.23-0.52,2.7-0.89c0.46-0.37,0.61-0.65,1.25-0.84
								c0.63-0.19,0.38-1.04-0.35-1.51c-0.72-0.47-1.16-1.15-1.72,0.06c-0.56,1.21-1.32,1.4-2.23,1.45
								c-0.91,0.05-1.15,1.33-1.95,1.39c-5.74,0.41-12.89-2.75-16.95-5.07l-2.15,1.18c2.29,1.32,5.24,2.64,5.93,2.9
								c1.04,0.38,4.79,1.91,5.87,2.04c-0.7,5.44-0.13,7.89,0.61,11.33c0.19,0.87,0.62,2.76-1.08,3.57
								c1.82,1.54,3.29-1.35,3.83-0.71c0.54,0.64,1.53,0.46,1.53,0.46c-4.17-5.91-3.51-9-3.41-14.22
								c6.87,0.18,10.76,1.64,13.04,2.96c2.82,1.63,6.43,3.25,8.71,4.14c4.33,1.68,5.64,6.3,5.48,9.57
								c-1.63-6.58-6.46-7.99-8.37-8.59c-4.23,4.88-1.15,10.27,2.94,11.71c3.26,1.14,6.91,2.71,7.58,5.91
								C118.74,61.42,119.22,58.55,118.98,52.32z"/>
						</g>
					</g>
					<path fill="#FFFFFF" d="M64.92,26.96c-4.45-3.96-8.08-4.88-9.85-3.16c-1.25,1.22-2.66-0.99-2.5-1.72
						c0.36-1.72,1.97-0.71,3.65-1.15c3.93-1.03,12.06,5.52,12.06,5.52l3.32,2.77l-2.64,1.15L64.92,26.96z"/>
				</g>
			</g>
		</g>
	</g>
	<g>
		<g>
			<path fill="#2E3033" d="M149.43,81.59V50.67h12.93c7.05,0,11.6,4.13,11.6,10.52c0,6.3-4.77,10.7-11.6,10.7h-6.05v9.7H149.43z
				 M161.97,66.08c3.24,0,5.1-1.78,5.1-4.89c0-3.04-1.81-4.72-5.1-4.72h-5.66v9.61H161.97z"/>
			<polygon fill="#2E3033" points="188.86,81.59 188.86,50.67 210.77,50.67 210.77,56.52 195.74,56.52 195.74,62.99 209.48,62.99 
				209.48,68.88 195.74,68.88 195.74,75.74 210.81,75.74 210.81,81.59 			"/>
			<path fill="#2E3033" d="M244.23,81.59l-5.5-9.62h-5.62v9.62h-6.88V50.67h14c6.86,0,11.3,4.18,11.3,10.65
				c0,4.22-2.14,7.72-5.74,9.47l6.41,10.8H244.23z M239.5,66.25c3.22,0,5.15-1.86,5.15-4.97c0-3.08-1.88-4.85-5.15-4.85h-6.39v9.82
				H239.5z"/>
			<path fill="#2E3033" d="M321.83,82.19c-8.4,0-13.83-5.45-13.83-13.87v-4.38c0-8.43,5.43-13.87,13.83-13.87
				c8.53,0,13.83,5.32,13.83,13.87v4.38C335.66,76.87,330.36,82.19,321.83,82.19z M321.83,55.92c-4.42,0-6.95,2.81-6.95,7.72v4.98
				c0,4.91,2.53,7.72,6.95,7.72c4.42,0,6.95-2.81,6.95-7.72v-4.98C328.78,58.73,326.25,55.92,321.83,55.92z"/>
			<polygon fill="#2E3033" points="370.46,81.59 358.04,62.61 358.04,81.59 351.29,81.59 351.29,50.67 357.67,50.67 370.09,69.65 
				370.09,50.67 376.84,50.67 376.84,81.59 			"/>
			<path fill="#2E3033" d="M413.83,81.59l-2.02-6.31h-11.04l-2.02,6.31h-6.9l11.09-30.92h6.71l11.09,30.92H413.83z M409.99,69.64
				l-3.7-11.7l-3.74,11.7H409.99z"/>
			<path fill="#2E3033" d="M287.06,70.69c-0.52,3.57-2.92,5.7-6.51,5.7c-5.86,0-6.74-4.89-6.74-7.81v-4.89
				c0-2.92,0.88-7.81,6.74-7.81c3.58,0,5.98,2.12,6.51,5.67l6.39-0.95c-0.86-6.25-6-10.52-12.9-10.52c-8.5,0-13.57,5.2-13.57,13.92
				v4.29c0,8.71,5.07,13.92,13.57,13.92c6.91,0,12.06-4.28,12.9-10.55L287.06,70.69z"/>
		</g>
		<g>
			<path fill="#D71F21" d="M195.86,101.72h-1.33v-9.9l-3.47,6.86h-1.33l-3.48-6.86v9.9h-1.33v-12.6h1.31l4.16,8.32l4.16-8.32h1.31
				V101.72z"/>
			<path fill="#D71F21" d="M198.5,97.87v-1.51c0-2.27,1.51-4.07,4.12-4.07c2.61,0,4.1,1.8,4.1,4.07v1.51c0,2.27-1.49,4.07-4.1,4.07
				C200,101.94,198.5,100.14,198.5,97.87z M202.63,93.38c-1.82,0-2.79,1.24-2.79,2.99v1.48c0,1.75,0.97,2.99,2.79,2.99
				s2.79-1.24,2.79-2.99v-1.48C205.42,94.63,204.45,93.38,202.63,93.38z"/>
			<path fill="#D71F21" d="M209.2,92.5h1.3v1.57c0.43-1.04,1.48-1.78,3.08-1.78c2.07,0,3.38,1.4,3.38,3.62v5.82h-1.37V96.1
				c0-1.57-0.7-2.63-2.36-2.63c-1.51,0-2.66,0.92-2.66,2.83v5.42h-1.37V92.5z"/>
			<path fill="#D71F21" d="M220.55,89.24c0.52,0,0.86,0.34,0.86,0.83s-0.34,0.83-0.86,0.83c-0.52,0-0.86-0.34-0.86-0.83
				S220.03,89.24,220.55,89.24z M219.87,92.5h1.37v9.22h-1.37V92.5z"/>
			<path fill="#D71F21" d="M227.5,101.72c-1.76,0-2.5-0.88-2.5-2.45v-5.65h-1.57V92.5H225v-2.65h1.37v2.65h2.36v1.12h-2.36v5.65
				c0,0.94,0.34,1.33,1.37,1.33h0.92v1.12H227.5z"/>
			<path fill="#D71F21" d="M230.42,97.87v-1.51c0-2.27,1.51-4.07,4.12-4.07c2.61,0,4.1,1.8,4.1,4.07v1.51c0,2.27-1.49,4.07-4.1,4.07
				C231.91,101.94,230.42,100.14,230.42,97.87z M234.54,93.38c-1.82,0-2.79,1.24-2.79,2.99v1.48c0,1.75,0.97,2.99,2.79,2.99
				c1.82,0,2.79-1.24,2.79-2.99v-1.48C237.33,94.63,236.36,93.38,234.54,93.38z"/>
			<path fill="#D71F21" d="M241.11,92.5h1.28v2.12c0.34-1.42,1.33-2.18,3.01-2.18h0.22v1.28h-0.27c-1.75,0-2.86,1.15-2.86,3.47v4.52
				h-1.37V92.5z"/>
			<path fill="#D71F21" d="M248.24,89.24c0.52,0,0.86,0.34,0.86,0.83s-0.34,0.83-0.86,0.83c-0.52,0-0.86-0.34-0.86-0.83
				S247.72,89.24,248.24,89.24z M247.55,92.5h1.37v9.22h-1.37V92.5z"/>
			<path fill="#D71F21" d="M251.93,92.5h1.3v1.57c0.43-1.04,1.48-1.78,3.08-1.78c2.07,0,3.38,1.4,3.38,3.62v5.82h-1.37V96.1
				c0-1.57-0.7-2.63-2.36-2.63c-1.51,0-2.66,0.92-2.66,2.83v5.42h-1.37V92.5z"/>
			<path fill="#D71F21" d="M262.22,102.71h1.35c0.5,0.88,1.39,1.28,2.65,1.28c1.6,0,2.7-0.9,2.7-2.3V99.6
				c-0.29,0.85-1.55,1.75-3.1,1.75c-2.39,0-3.76-1.71-3.76-3.76v-1.53c0-2.09,1.35-3.76,3.78-3.76c1.73,0,2.75,0.94,3.13,1.75V92.5
				h1.31v9.22c0,1.91-1.73,3.35-4.07,3.35C264.38,105.07,262.73,104.22,262.22,102.71z M268.92,97.44v-1.19
				c0-1.57-1.19-2.84-2.77-2.84c-1.8,0-2.74,0.99-2.74,2.75v1.31c0,1.73,0.92,2.75,2.68,2.75
				C267.66,100.23,268.92,99.18,268.92,97.44z"/>
			<path fill="#D71F21" d="M283.41,101.72v-1.15c-0.4,0.65-1.64,1.37-3.17,1.37c-2.18,0-3.49-1.22-3.49-2.9
				c0-1.78,1.46-2.88,3.66-2.88c1.46,0,2.43,0.61,2.95,1.15V95.6c0-1.26-0.83-2.23-2.3-2.23c-1.17,0-1.93,0.54-2.3,1.39h-1.26
				c0.47-1.53,1.76-2.47,3.58-2.47c2.29,0,3.66,1.49,3.66,3.31v6.12H283.41z M283.36,99.02c0-1.15-1.37-1.96-2.75-1.96
				c-1.53,0-2.56,0.72-2.56,2s1.06,2,2.48,2C281.97,101.05,283.36,100.21,283.36,99.02z"/>
			<path fill="#D71F21" d="M287.53,92.5h1.3v1.57c0.43-1.04,1.48-1.78,3.08-1.78c2.07,0,3.38,1.4,3.38,3.62v5.82h-1.37V96.1
				c0-1.57-0.7-2.63-2.36-2.63c-1.51,0-2.66,0.92-2.66,2.83v5.42h-1.37V92.5z"/>
			<path fill="#D71F21" d="M305.93,88.58v13.14h-1.3v-1.44c-0.4,0.85-1.58,1.66-3.12,1.66c-2.43,0-3.85-1.82-3.85-4.12v-1.4
				c0-2.39,1.49-4.12,3.82-4.12c1.44,0,2.52,0.65,3.08,1.58v-5.29H305.93z M299.03,97.76c0,1.69,0.81,3.06,2.72,3.06
				c1.82,0,2.81-1.39,2.81-3.17v-1.19c0-1.89-1.3-3.06-2.83-3.06c-1.75,0-2.7,1.37-2.7,3.06V97.76z"/>
			<path fill="#D71F21" d="M323.93,101.72h-1.33v-9.9l-3.47,6.86h-1.33l-3.48-6.86v9.9h-1.33v-12.6h1.31l4.16,8.32l4.16-8.32h1.31
				V101.72z"/>
			<path fill="#D71F21" d="M333.27,101.72v-1.15c-0.4,0.65-1.64,1.37-3.17,1.37c-2.18,0-3.49-1.22-3.49-2.9
				c0-1.78,1.46-2.88,3.66-2.88c1.46,0,2.43,0.61,2.95,1.15V95.6c0-1.26-0.83-2.23-2.3-2.23c-1.17,0-1.93,0.54-2.3,1.39h-1.26
				c0.47-1.53,1.76-2.47,3.58-2.47c2.29,0,3.66,1.49,3.66,3.31v6.12H333.27z M333.22,99.02c0-1.15-1.37-1.96-2.75-1.96
				c-1.53,0-2.56,0.72-2.56,2s1.06,2,2.48,2C331.83,101.05,333.22,100.21,333.22,99.02z"/>
			<path fill="#D71F21" d="M337.39,92.5h1.3v1.57c0.43-1.04,1.48-1.78,3.08-1.78c2.07,0,3.38,1.4,3.38,3.62v5.82h-1.37V96.1
				c0-1.57-0.7-2.63-2.36-2.63c-1.51,0-2.66,0.92-2.66,2.83v5.42h-1.37V92.5z"/>
			<path fill="#D71F21" d="M354.22,101.72v-1.15c-0.4,0.65-1.64,1.37-3.17,1.37c-2.18,0-3.49-1.22-3.49-2.9
				c0-1.78,1.46-2.88,3.66-2.88c1.46,0,2.43,0.61,2.95,1.15V95.6c0-1.26-0.83-2.23-2.3-2.23c-1.17,0-1.93,0.54-2.3,1.39h-1.26
				c0.47-1.53,1.76-2.47,3.58-2.47c2.29,0,3.66,1.49,3.66,3.31v6.12H354.22z M354.17,99.02c0-1.15-1.37-1.96-2.75-1.96
				c-1.53,0-2.56,0.72-2.56,2s1.06,2,2.48,2C352.78,101.05,354.17,100.21,354.17,99.02z"/>
			<path fill="#D71F21" d="M358.05,102.71h1.35c0.5,0.88,1.39,1.28,2.65,1.28c1.6,0,2.7-0.9,2.7-2.3V99.6
				c-0.29,0.85-1.55,1.75-3.1,1.75c-2.39,0-3.76-1.71-3.76-3.76v-1.53c0-2.09,1.35-3.76,3.78-3.76c1.73,0,2.75,0.94,3.13,1.75V92.5
				h1.31v9.22c0,1.91-1.73,3.35-4.07,3.35C360.21,105.07,358.56,104.22,358.05,102.71z M364.75,97.44v-1.19
				c0-1.57-1.19-2.84-2.77-2.84c-1.8,0-2.74,0.99-2.74,2.75v1.31c0,1.73,0.92,2.75,2.68,2.75
				C363.49,100.23,364.75,99.18,364.75,97.44z"/>
			<path fill="#D71F21" d="M368.58,97.92v-1.48c0-2.5,1.42-4.16,4.02-4.16c2.63,0,3.91,1.75,3.91,4.01v1.37h-6.61v0.32
				c0,1.6,0.83,2.9,2.75,2.9c1.39,0,2.23-0.74,2.54-1.78h1.22c-0.31,1.66-1.84,2.83-3.76,2.83
				C370.26,101.94,368.58,100.41,368.58,97.92z M369.9,96.62h5.33v-0.43c0-1.64-0.83-2.86-2.63-2.86c-1.98,0-2.7,1.31-2.7,3.01
				V96.62z"/>
			<path fill="#D71F21" d="M379,92.5h1.3v1.57c0.43-1.04,1.44-1.78,3.04-1.78c1.37,0,2.41,0.68,2.93,1.8
				c0.63-1.08,1.75-1.8,3.35-1.8c2.02,0,3.31,1.44,3.31,3.62v5.82h-1.37V96.1c0-1.57-0.77-2.63-2.29-2.63
				c-1.51,0-2.63,0.92-2.63,2.83v5.42h-1.37V96.1c0-1.57-0.77-2.63-2.29-2.63c-1.51,0-2.63,0.92-2.63,2.83v5.42H379V92.5z"/>
			<path fill="#D71F21" d="M395.31,97.92v-1.48c0-2.5,1.42-4.16,4.01-4.16c2.63,0,3.91,1.75,3.91,4.01v1.37h-6.61v0.32
				c0,1.6,0.83,2.9,2.75,2.9c1.39,0,2.23-0.74,2.54-1.78h1.22c-0.31,1.66-1.84,2.83-3.76,2.83
				C396.99,101.94,395.31,100.41,395.31,97.92z M396.63,96.62h5.33v-0.43c0-1.64-0.83-2.86-2.63-2.86c-1.98,0-2.7,1.31-2.7,3.01
				V96.62z"/>
			<path fill="#D71F21" d="M405.73,92.5h1.3v1.57c0.43-1.04,1.48-1.78,3.08-1.78c2.07,0,3.38,1.4,3.38,3.62v5.82h-1.37V96.1
				c0-1.57-0.7-2.63-2.36-2.63c-1.51,0-2.66,0.92-2.66,2.83v5.42h-1.37V92.5z"/>
			<path fill="#D71F21" d="M419.49,101.72c-1.76,0-2.5-0.88-2.5-2.45v-5.65h-1.57V92.5h1.57v-2.65h1.37v2.65h2.36v1.12h-2.36v5.65
				c0,0.94,0.34,1.33,1.37,1.33h0.92v1.12H419.49z"/>
		</g>
	</g>
</g>
</svg>
