<?xml version="1.0" encoding="utf-8"?>
<!-- Generator: Adobe Illustrator 20.1.0, SVG Export Plug-In . SVG Version: 6.00 Build 0)  -->
<svg version="1.1" id="Capa_1" xmlns="http://www.w3.org/2000/svg" xmlns:xlink="http://www.w3.org/1999/xlink" x="0px" y="0px"
	 width="432.5px" height="145.6px" viewBox="0 0 432.5 145.6" style="enable-background:new 0 0 432.5 145.6;" xml:space="preserve"
	>
<style type="text/css">
	.st0{fill:#FFFFFF;}
	.st1{fill:url(#SVGID_1_);}
	.st2{fill:none;}
	.st3{opacity:0.12;fill:#822000;}
	.st4{clip-path:url(#SVGID_3_);}
	.st5{fill:#2E3033;}
	.st6{fill:#D71F21;}
	.st7{font-family:'Colfax-Regular';}
	.st8{font-size:20px;}
</style>
<g>
	<g>
		<g>
			<g>
				<circle class="st0" cx="65.4" cy="72.8" r="61.8"/>
				<g>
					<linearGradient id="SVGID_1_" gradientUnits="userSpaceOnUse" x1="65.4065" y1="6.2434" x2="65.4065" y2="83.4114">
						<stop  offset="0" style="stop-color:#FBBB1C"/>
						<stop  offset="1" style="stop-color:#BD2B0B"/>
					</linearGradient>
					<circle class="st1" cx="65.4" cy="72.6" r="59.9"/>
					<circle class="st2" cx="65.5" cy="72.6" r="59.9"/>
					<path class="st3" d="M65.5,14.7c32.8,0,59.4,26.3,59.9,58.9c0-0.3,0-0.7,0-1c0-33.1-26.8-59.9-59.9-59.9
						c-33.1,0-59.9,26.8-59.9,59.9c0,0.3,0,0.7,0,1C6.1,41,32.7,14.7,65.5,14.7z"/>
				</g>
			</g>
			<g>
				<defs>
					<circle id="SVGID_2_" cx="65.5" cy="72.6" r="59.9"/>
				</defs>
				<clipPath id="SVGID_3_">
					<use xlink:href="#SVGID_2_"  style="overflow:visible;"/>
				</clipPath>
				<g class="st4">
					<g>
						<path class="st0" d="M39.1,32.3c0.9-1.1,2.7-1.9,3.6-1c0.9,0.8,1.1,2.4,0.3,3.5c-0.7,0.9-3,1.9-4.1,0.8
							C37.9,34.5,38.5,33,39.1,32.3z"/>
						<g>
							<path class="st0" d="M114,90.8c4.9,2.2,13.7-0.1,16-1.5c2.7-1.7,2.4-4.4-0.8-6S84.6,66.9,82.4,66c0.5-1.3-0.5-3.9-1.8-4.6
								c-1.1-0.5-14.9-5.8-24.8-9.8c-2.7-1.1-6.4-3.2-7-6.8c-1.2,5.1,2.5,7.9,4.5,8.8c2.4,1,23.6,9.6,25.3,10.4
								c1,0.5,1.3,2.3,0.6,3.9c7,2.6,44.7,16.5,46.4,17.4c1.7,0.9,1.9,1.8,0,2.2c-2.6,0.6-6.8,1.6-11.9-0.5
								c-3.2-1.3-25.2-10.1-29.2-11.5c3.1,1.8,21,10.8,25,12.8c-2.9,2.1-18.9-1.7-23.5-4.3C95,92.7,111.6,93.2,114,90.8z M71.6,77.7
								c3.4,1,7.5-0.1,9.8-2.9c-6,2.4-28.3-6.6-30-19.4c-0.8,6.8,2.8,11.7,5.2,13.4c-1.7,1.5-2.5,3.8-2.3,6.3
								c-2.5-1.3-4.4-6.9-4.1-10.4c-2.1,0.9-2.9,2.3-3.9,4.1c-0.7-3.3,0.2-7,1.9-8.6c-1.1-0.3-2.4-0.4-3.4-0.2
								c0.5-1.4,1.7-3,3.9-4.5c-2.9,0.2-7.4,3-8.1,7.2c1.3-0.3,3.1-0.1,4.1,0.2c-1.3,3.1-1.3,8.2,1.4,12.2c0.2-1.4,1-4,2.7-5.2
								c-0.3,3.7,2.4,9.8,8,11c-0.1-2,0.2-4.4,1.1-6c2.5,9.6,8.1,13.4,13.9,12.9c-2.3-1.3-5.3-4.1-5.6-8.4c3.8,6.1,19,10.2,22.9,8.5
								C82.5,86.4,73.8,82.5,71.6,77.7z M64.4,24.9c2.1-0.1,3.1,0,4.1,0.1C59.4,29,52,30.3,49,34.9c-0.5-1.2,0-3.5,1.1-5.2
								c-3.3,1.3-4.6,5.1-3.9,10.2c-2.3,3.5-2.9,8.4,1.2,13.7C43.4,40.6,55.5,34.7,70.6,28c-1.3-0.6-3.8-0.7-3.8-0.7
								c1.3-0.8,3-1.8,5-2.7c-2.3-0.6-5-1.2-9.2-1.1L64.4,24.9z M77,99.7c0.7,1.3,3.5,2.2,6,1.9c-1,3.5-6.9,4.7-9.8,4.1
								c7.6,8.4,6.1,19,19.5,17.8c-7.6-1.2-10.7-9.8-11.2-14.3c3.1,3.9,8.1,5.4,11.4,5.4c-1.9-3.6-3-6.8-3.2-11.2
								c11.9,8,23.1,11.4,32.9,14.5c1.7,0.5,1.2,2.2,0.1,2.8c-4.8,2.4-20.6,1.3-26.3-6c3.7,7.2,12,9.1,20.4,10.2
								c0,0.5,0.1,3.5-2.9,3.2c-5.6-0.6-15.7-1.5-21.6-10.3c2.4,9.6,17.9,13.2,22.6,14.5c2.1,0.6,5.1,0.6,6.2-7.2
								c2.8-0.5,5.2-2.1,6.2-3.3c1-1.3,3.3-5.7-0.8-6.5c-4.7-0.9-21.5-6-32.8-13.6c-5-3.3-5.1-8-9.2-11.5C86.3,97,81.2,99.5,77,99.7
								z M70.4,90.5c3,9-1.3,10.8-5.7,10.6c-4.5-0.3-6.6-2.7-7.3-7.6c2,0.1,4.9-0.5,6.7-2.1C43,88.9,28.1,70.9,28.3,63.5
								c2.1,2.2,7.3,3,10.2,0c-3.7-0.9-6.9-5.3-6.5-9.2c2.8,2.3,6,1.1,7.1-1.4c-5.4,1.1-10.6-7.2-7.5-16.1
								c2.9-8.4,11.1-11.1,16.2-10c-0.5,0.8-0.8,1.9-0.3,3.3c1.4-2.3,4.5-3.6,8.5-4.4l-1.8-1.5c-1.3,0.2-2.4,0.6-3.7,1.1
								c-5.8-2.6-18.6-0.7-27.2,15.5c1.4-1.1,3.1-1.8,3.8-1.9c-2.3,3.6-5.1,9.6-6,14.6c1-0.9,2.4-1.7,3.7-2
								c-3.3,13.8,5.7,28.7,16.2,34.9c-0.3,3.1,0.5,4.8,3.3,7.9c-0.2,0.3-1,1.4-1.5,2c-0.3,0.4-0.7,0.9-1.4,0.8
								C39.8,97,21.9,92,20.3,90.7c-0.8-3.7-5.7-7.3-9.7-5.5c-1.7-0.4-2.5,0.7-2.8,1.5c1-0.6,2.1-0.3,2.6,0.2
								c0.6,1.8,3.8-1.5,6.6,3.3c-1.7-0.5-7.6-1.8-8.4,0c-0.8,0.1-1.9,0.1-2.3,1.7c0.9-0.4,1.7-0.5,2.3-0.3c1.1,1.6,8.3-0.5,12,2.7
								c3.2,3.3,0.9,5.1,3.1,6.1c-0.1,1.1-1,1.4-1.8,1.7c1.1,0.6,2.7,0.6,3.4-1.2c2.1-0.5,0.5-4.9-1.7-6.1
								c4.1,1.5,14.7,4.5,17.6,5.2c1.5,0.3,2.6,0,3.3-0.9c0.5-0.7,1.3-1.5,2-2.5c1.5,1.2,2.7,1.4,4,1.2c-0.3-2.6,0.6-4.8,2.2-5.9
								c0.9,9.6,5.3,13.8,10.6,14c0.8,0.9,3.7,6.2,4,6.8c0.3,0.5,0.7,1.5,0.1,1.9c-1.1,0.6-15.1,3.8-19.5,4.9
								c-2.2-1.9-9.4-4.4-10.4-0.2c-1.5,1.2-1.5,2.4-0.5,3.4c-0.1-1.4,0.2-1.6,1.4-2.5c1.8,0.9,2.4-1.8,6.6,0.5
								c-3.6,1.3-7.4,3-6.5,6c-0.5,0.6-0.4,2.2-0.1,3.2c0.6-0.6,1-1.3,1.2-2.5c1.6,0.5,0.3-2.2,8.4-4.9c5,1.4,5.8,5,7.2,5.1
								c0.7,1,0.1,2.3-0.7,3c2.2,0,2.9-2.2,2.1-3.3c1.8-2.8-3.4-5.6-5.3-5.7c4-1.1,16.4-4,18.6-5c1.7-0.8,1.8-2.3,0.7-4.1
								c-0.5-0.8-2.8-5.6-3.3-6.6C76.5,104.3,74.7,93.5,70.4,90.5z"/>
							<path class="st0" d="M111.6,50c-0.2-6.2-4.2-7.2-6.8-7.4c-1.4-0.1-2.2-0.1-3-0.2c-2.8-2-8-4.7-8.6-5.1
								c-0.8-0.5-2.3-1.4-4.3-1.7c1.5-0.1,2.2-0.5,2.7-0.9s0.6-0.6,1.2-0.8c0.6-0.2,0.4-1-0.3-1.5c-0.7-0.5-1.2-1.1-1.7,0.1
								c-0.6,1.2-1.3,1.4-2.2,1.4c-0.9,0-1.2,1.3-1.9,1.4c-5.7,0.4-12.9-2.7-17-5.1l-2.2,1.2c2.3,1.3,5.2,2.6,5.9,2.9
								c1,0.4,4.8,1.9,5.9,2c-0.7,5.4-0.1,7.9,0.6,11.3c0.2,0.9,0.6,2.8-1.1,3.6c1.8,1.5,3.3-1.3,3.8-0.7c0.5,0.6,1.5,0.5,1.5,0.5
								c-4.2-5.9-3.5-9-3.4-14.2c6.9,0.2,10.8,1.6,13,3c2.8,1.6,6.4,3.3,8.7,4.1c4.3,1.7,5.6,6.3,5.5,9.6c-1.6-6.6-6.5-8-8.4-8.6
								c-4.2,4.9-1.1,10.3,2.9,11.7c3.3,1.1,6.9,2.7,7.6,5.9C111.3,59.1,111.8,56.3,111.6,50z"/>
						</g>
					</g>
					<path class="st0" d="M57.5,24.7c-4.4-4-8.1-4.9-9.8-3.2c-1.3,1.2-2.7-1-2.5-1.7c0.4-1.7,2-0.7,3.6-1.1c3.9-1,12.1,5.5,12.1,5.5
						l3.3,2.8l-2.6,1.1L57.5,24.7z"/>
				</g>
			</g>
		</g>
	</g>
	<g>
		<g>
			<path class="st5" d="M157.6,64.8V33.9h12.9c7,0,11.6,4.1,11.6,10.5c0,6.3-4.8,10.7-11.6,10.7h-6v9.7H157.6z M170.1,49.3
				c3.2,0,5.1-1.8,5.1-4.9c0-3-1.8-4.7-5.1-4.7h-5.7v9.6H170.1z"/>
			<polygon class="st5" points="197,64.8 197,33.9 218.9,33.9 218.9,39.8 203.9,39.8 203.9,46.2 217.6,46.2 217.6,52.1 203.9,52.1 
				203.9,59 218.9,59 218.9,64.8 			"/>
			<path class="st5" d="M252.4,64.8l-5.5-9.6h-5.6v9.6h-6.9V33.9h14c6.9,0,11.3,4.2,11.3,10.7c0,4.2-2.1,7.7-5.7,9.5l6.4,10.8H252.4
				z M247.6,49.5c3.2,0,5.1-1.9,5.1-5c0-3.1-1.9-4.8-5.1-4.8h-6.4v9.8H247.6z"/>
			<path class="st5" d="M330,65.4c-8.4,0-13.8-5.4-13.8-13.9v-4.4c0-8.4,5.4-13.9,13.8-13.9c8.5,0,13.8,5.3,13.8,13.9v4.4
				C343.8,60.1,338.5,65.4,330,65.4z M330,39.2c-4.4,0-6.9,2.8-6.9,7.7v5c0,4.9,2.5,7.7,6.9,7.7c4.4,0,6.9-2.8,6.9-7.7v-5
				C336.9,42,334.4,39.2,330,39.2z"/>
			<polygon class="st5" points="378.6,64.8 366.2,45.9 366.2,64.8 359.4,64.8 359.4,33.9 365.8,33.9 378.2,52.9 378.2,33.9 
				385,33.9 385,64.8 			"/>
			<path class="st5" d="M422,64.8l-2-6.3h-11l-2,6.3H400l11.1-30.9h6.7l11.1,30.9H422z M418.1,52.9l-3.7-11.7l-3.7,11.7H418.1z"/>
			<path class="st5" d="M295.2,53.9c-0.5,3.6-2.9,5.7-6.5,5.7c-5.9,0-6.7-4.9-6.7-7.8v-4.9c0-2.9,0.9-7.8,6.7-7.8
				c3.6,0,6,2.1,6.5,5.7l6.4-1c-0.9-6.3-6-10.5-12.9-10.5c-8.5,0-13.6,5.2-13.6,13.9v4.3c0,8.7,5.1,13.9,13.6,13.9
				c6.9,0,12.1-4.3,12.9-10.6L295.2,53.9z"/>
		</g>
		<text transform="matrix(1 0 0 1 163.4081 96.9673)" class="st6 st7 st8">Monitoring and Management</text>
	</g>
</g>
</svg>
