<?xml version="1.0" encoding="utf-8"?>
<!-- Generator: Adobe Illustrator 20.1.0, SVG Export Plug-In . SVG Version: 6.00 Build 0)  -->
<svg version="1.1" id="Capa_1" xmlns="http://www.w3.org/2000/svg" xmlns:xlink="http://www.w3.org/1999/xlink" x="0px" y="0px"
	 width="432.5px" height="145.6px" viewBox="0 0 432.5 145.6" style="enable-background:new 0 0 432.5 145.6;" xml:space="preserve"
	>
<style type="text/css">
	.st0{fill:#FFFFFF;}
	.st1{fill:url(#SVGID_1_);}
	.st2{fill:none;}
	.st3{opacity:0.12;fill:#822000;}
	.st4{clip-path:url(#SVGID_3_);}
	.st5{fill:#2E3033;}
	.st6{fill:#D71F21;}
</style>
<g>
	<g>
		<g>
			<g>
				<circle class="st0" cx="65.4" cy="72.8" r="61.8"/>
				<g>
					<linearGradient id="SVGID_1_" gradientUnits="userSpaceOnUse" x1="65.4165" y1="6.2584" x2="65.4165" y2="83.4264">
						<stop  offset="0" style="stop-color:#FBBB1C"/>
						<stop  offset="1" style="stop-color:#BD2B0B"/>
					</linearGradient>
					<circle class="st1" cx="65.4" cy="72.6" r="59.9"/>
					<circle class="st2" cx="65.5" cy="72.6" r="59.9"/>
					<path class="st3" d="M65.5,14.7c32.8,0,59.4,26.3,59.9,58.9c0-0.3,0-0.7,0-1c0-33.1-26.8-59.9-59.9-59.9
						c-33.1,0-59.9,26.8-59.9,59.9c0,0.3,0,0.7,0,1C6.1,41,32.7,14.7,65.5,14.7z"/>
				</g>
			</g>
			<g>
				<defs>
					<circle id="SVGID_2_" cx="65.5" cy="72.6" r="59.9"/>
				</defs>
				<clipPath id="SVGID_3_">
					<use xlink:href="#SVGID_2_"  style="overflow:visible;"/>
				</clipPath>
				<g class="st4">
					<g>
						<path class="st0" d="M39.1,32.3c0.9-1.1,2.7-1.9,3.6-1c0.9,0.8,1.1,2.4,0.3,3.5c-0.7,0.9-3,1.9-4.1,0.8
							C37.9,34.5,38.5,33,39.1,32.3z"/>
						<g>
							<path class="st0" d="M114,90.9c4.9,2.2,13.7-0.1,16-1.5c2.7-1.7,2.4-4.4-0.8-6S84.6,66.9,82.4,66c0.5-1.3-0.5-3.9-1.8-4.6
								c-1.1-0.5-14.9-5.8-24.8-9.8c-2.7-1.1-6.4-3.2-7-6.8c-1.2,5.1,2.5,7.9,4.5,8.8c2.4,1,23.6,9.6,25.3,10.4
								c1,0.5,1.3,2.3,0.6,3.9c7,2.6,44.7,16.5,46.4,17.4c1.7,0.9,1.9,1.8,0,2.2c-2.6,0.6-6.8,1.6-11.9-0.5
								c-3.2-1.3-25.2-10.1-29.2-11.5c3.1,1.8,21,10.8,25,12.8c-2.9,2.1-18.9-1.7-23.5-4.3C95,92.7,111.6,93.2,114,90.9z M71.6,77.8
								c3.4,1,7.5-0.1,9.8-2.9c-6,2.4-28.3-6.6-30-19.4c-0.8,6.8,2.8,11.7,5.2,13.4c-1.7,1.5-2.5,3.8-2.3,6.3
								c-2.5-1.3-4.4-6.9-4.1-10.4c-2.1,0.9-2.9,2.3-3.9,4.1c-0.7-3.3,0.2-7,1.9-8.6c-1.1-0.3-2.4-0.4-3.4-0.2
								c0.5-1.4,1.7-3,3.9-4.5c-2.9,0.2-7.4,3-8.1,7.2c1.3-0.3,3.1-0.1,4.1,0.2c-1.3,3.1-1.3,8.2,1.4,12.2c0.2-1.4,1-4,2.7-5.2
								c-0.3,3.7,2.4,9.8,8,11c-0.1-2,0.2-4.4,1.1-6c2.5,9.6,8.1,13.4,13.9,12.9c-2.3-1.3-5.3-4.1-5.6-8.4c3.8,6.1,19,10.2,22.9,8.5
								C82.5,86.4,73.9,82.5,71.6,77.8z M64.4,25c2.1-0.1,3.1,0,4.1,0.1C59.5,29,52,30.4,49,34.9c-0.5-1.2,0-3.5,1.1-5.2
								c-3.3,1.3-4.6,5.1-3.9,10.2c-2.3,3.5-2.9,8.4,1.2,13.7C43.4,40.6,55.6,34.7,70.6,28c-1.3-0.6-3.8-0.7-3.8-0.7
								c1.3-0.8,3-1.8,5-2.7c-2.3-0.6-5-1.2-9.2-1.1L64.4,25z M77,99.7c0.7,1.3,3.5,2.2,6,1.9c-1,3.5-6.9,4.7-9.8,4.1
								c7.6,8.4,6.1,19,19.5,17.8c-7.6-1.2-10.7-9.8-11.2-14.3c3.1,3.9,8.1,5.4,11.4,5.4c-1.9-3.6-3-6.8-3.2-11.2
								c11.9,8,23.1,11.4,32.9,14.5c1.7,0.5,1.2,2.2,0.1,2.8c-4.8,2.4-20.6,1.3-26.3-6c3.7,7.2,12,9.1,20.4,10.2
								c0,0.5,0.1,3.5-2.9,3.2c-5.6-0.6-15.7-1.5-21.6-10.3c2.4,9.6,17.9,13.2,22.6,14.5c2.1,0.6,5.1,0.6,6.2-7.2
								c2.8-0.5,5.2-2.1,6.2-3.3c1-1.3,3.3-5.7-0.8-6.5c-4.7-0.9-21.5-6-32.8-13.6c-5-3.3-5.1-8-9.2-11.5C86.3,97,81.3,99.5,77,99.7
								z M70.4,90.5c3,9-1.3,10.8-5.7,10.6c-4.5-0.3-6.6-2.7-7.3-7.6c2,0.1,4.9-0.5,6.7-2.1C43,88.9,28.1,70.9,28.4,63.5
								c2.1,2.2,7.3,3,10.2,0c-3.7-0.9-6.9-5.3-6.5-9.2c2.8,2.3,6,1.1,7.1-1.4c-5.4,1.1-10.6-7.2-7.5-16.1
								c2.9-8.4,11.1-11.1,16.2-10c-0.5,0.8-0.8,1.9-0.3,3.3c1.4-2.3,4.5-3.6,8.5-4.4l-1.8-1.5c-1.3,0.2-2.4,0.6-3.7,1.1
								c-5.8-2.6-18.6-0.7-27.2,15.5c1.4-1.1,3.1-1.8,3.8-1.9c-2.3,3.6-5.1,9.6-6,14.6c1-0.9,2.4-1.7,3.7-2
								c-3.3,13.8,5.7,28.7,16.2,34.9c-0.3,3.1,0.5,4.8,3.3,7.9c-0.2,0.3-1,1.4-1.5,2c-0.3,0.4-0.7,0.9-1.4,0.8
								C39.8,97,21.9,92,20.3,90.7c-0.8-3.7-5.7-7.3-9.7-5.5c-1.7-0.4-2.5,0.7-2.8,1.5c1-0.6,2.1-0.3,2.6,0.2
								c0.6,1.8,3.8-1.5,6.6,3.3c-1.7-0.5-7.6-1.8-8.4,0c-0.8,0.1-1.9,0.1-2.3,1.7c0.9-0.4,1.7-0.5,2.3-0.3c1.1,1.6,8.3-0.5,12,2.7
								c3.2,3.3,0.9,5.1,3.1,6.1c-0.1,1.1-1,1.4-1.8,1.7c1.1,0.6,2.7,0.6,3.4-1.2c2.1-0.5,0.5-4.9-1.7-6.1
								c4.1,1.5,14.7,4.5,17.6,5.2c1.5,0.3,2.6,0,3.3-0.9c0.5-0.7,1.3-1.5,2-2.5c1.5,1.2,2.7,1.4,4,1.2c-0.3-2.6,0.6-4.8,2.2-5.9
								c0.9,9.6,5.3,13.8,10.6,14c0.8,0.9,3.7,6.2,4,6.8c0.3,0.5,0.7,1.5,0.1,1.9c-1.1,0.6-15.1,3.8-19.5,4.9
								c-2.2-1.9-9.4-4.4-10.4-0.2c-1.5,1.2-1.5,2.4-0.5,3.4c-0.1-1.4,0.2-1.6,1.4-2.5c1.8,0.9,2.4-1.8,6.6,0.5
								c-3.6,1.3-7.4,3-6.5,6c-0.5,0.6-0.4,2.2-0.1,3.2c0.6-0.6,1-1.3,1.2-2.5c1.6,0.5,0.3-2.2,8.4-4.9c5,1.4,5.8,5,7.2,5.1
								c0.7,1,0.1,2.3-0.7,3c2.2,0,2.9-2.2,2.1-3.3c1.8-2.8-3.4-5.6-5.3-5.7c4-1.1,16.4-4,18.6-5c1.7-0.8,1.8-2.3,0.7-4.1
								c-0.5-0.8-2.8-5.6-3.3-6.6C76.5,104.3,74.7,93.5,70.4,90.5z"/>
							<path class="st0" d="M111.6,50c-0.2-6.2-4.2-7.2-6.8-7.4c-1.4-0.1-2.2-0.1-3-0.2c-2.8-2-8-4.7-8.6-5.1
								c-0.8-0.5-2.3-1.4-4.3-1.7c1.5-0.1,2.2-0.5,2.7-0.9s0.6-0.6,1.2-0.8c0.6-0.2,0.4-1-0.3-1.5c-0.7-0.5-1.2-1.1-1.7,0.1
								c-0.6,1.2-1.3,1.4-2.2,1.4c-0.9,0-1.2,1.3-1.9,1.4c-5.7,0.4-12.9-2.7-17-5.1l-2.2,1.2c2.3,1.3,5.2,2.6,5.9,2.9
								c1,0.4,4.8,1.9,5.9,2c-0.7,5.4-0.1,7.9,0.6,11.3c0.2,0.9,0.6,2.8-1.1,3.6c1.8,1.5,3.3-1.3,3.8-0.7c0.5,0.6,1.5,0.5,1.5,0.5
								c-4.2-5.9-3.5-9-3.4-14.2c6.9,0.2,10.8,1.6,13,3c2.8,1.6,6.4,3.3,8.7,4.1c4.3,1.7,5.6,6.3,5.5,9.6c-1.6-6.6-6.5-8-8.4-8.6
								c-4.2,4.9-1.1,10.3,2.9,11.7c3.3,1.1,6.9,2.7,7.6,5.9C111.4,59.1,111.8,56.3,111.6,50z"/>
						</g>
					</g>
					<path class="st0" d="M57.5,24.7c-4.4-4-8.1-4.9-9.8-3.2c-1.3,1.2-2.7-1-2.5-1.7c0.4-1.7,2-0.7,3.6-1.1c3.9-1,12.1,5.5,12.1,5.5
						l3.3,2.8l-2.6,1.1L57.5,24.7z"/>
				</g>
			</g>
		</g>
	</g>
	<g>
		<g>
			<path class="st5" d="M157.6,64.9V33.9h12.9c7,0,11.6,4.1,11.6,10.5c0,6.3-4.8,10.7-11.6,10.7h-6v9.7H157.6z M170.1,49.3
				c3.2,0,5.1-1.8,5.1-4.9c0-3-1.8-4.7-5.1-4.7h-5.7v9.6H170.1z"/>
			<polygon class="st5" points="197,64.9 197,33.9 218.9,33.9 218.9,39.8 203.9,39.8 203.9,46.2 217.6,46.2 217.6,52.1 203.9,52.1 
				203.9,59 219,59 219,64.9 			"/>
			<path class="st5" d="M252.4,64.9l-5.5-9.6h-5.6v9.6h-6.9V33.9h14c6.9,0,11.3,4.2,11.3,10.7c0,4.2-2.1,7.7-5.7,9.5l6.4,10.8H252.4
				z M247.6,49.5c3.2,0,5.1-1.9,5.1-5c0-3.1-1.9-4.8-5.1-4.8h-6.4v9.8H247.6z"/>
			<path class="st5" d="M330,65.5c-8.4,0-13.8-5.4-13.8-13.9v-4.4c0-8.4,5.4-13.9,13.8-13.9c8.5,0,13.8,5.3,13.8,13.9v4.4
				C343.8,60.1,338.5,65.5,330,65.5z M330,39.2c-4.4,0-6.9,2.8-6.9,7.7v5c0,4.9,2.5,7.7,6.9,7.7c4.4,0,6.9-2.8,6.9-7.7v-5
				C336.9,42,334.4,39.2,330,39.2z"/>
			<polygon class="st5" points="378.6,64.9 366.2,45.9 366.2,64.9 359.4,64.9 359.4,33.9 365.8,33.9 378.2,52.9 378.2,33.9 
				385,33.9 385,64.9 			"/>
			<path class="st5" d="M422,64.9l-2-6.3h-11l-2,6.3H400l11.1-30.9h6.7l11.1,30.9H422z M418.1,52.9l-3.7-11.7l-3.7,11.7H418.1z"/>
			<path class="st5" d="M295.2,53.9c-0.5,3.6-2.9,5.7-6.5,5.7c-5.9,0-6.7-4.9-6.7-7.8v-4.9c0-2.9,0.9-7.8,6.7-7.8
				c3.6,0,6,2.1,6.5,5.7l6.4-1c-0.9-6.3-6-10.5-12.9-10.5c-8.5,0-13.6,5.2-13.6,13.9v4.3c0,8.7,5.1,13.9,13.6,13.9
				c6.9,0,12.1-4.3,12.9-10.6L295.2,53.9z"/>
		</g>
		<g>
			<path class="st6" d="M177.4,97h-1.5V86l-3.9,7.6h-1.5l-3.9-7.6v11h-1.5V83h1.5l4.6,9.2l4.6-9.2h1.5V97z"/>
			<path class="st6" d="M180.3,92.7V91c0-2.5,1.7-4.5,4.6-4.5s4.6,2,4.6,4.5v1.7c0,2.5-1.7,4.5-4.6,4.5
				C182,97.2,180.3,95.2,180.3,92.7z M184.9,87.7c-2,0-3.1,1.4-3.1,3.3v1.6c0,1.9,1.1,3.3,3.1,3.3s3.1-1.4,3.1-3.3V91
				C188,89.1,186.9,87.7,184.9,87.7z"/>
			<path class="st6" d="M192.2,86.7h1.4v1.7c0.5-1.2,1.6-2,3.4-2c2.3,0,3.8,1.6,3.8,4V97h-1.5v-6.2c0-1.7-0.8-2.9-2.6-2.9
				c-1.7,0-3,1-3,3.1v6h-1.5V86.7z"/>
			<path class="st6" d="M204.8,83.1c0.6,0,1,0.4,1,0.9s-0.4,0.9-1,0.9s-1-0.4-1-0.9S204.3,83.1,204.8,83.1z M204.1,86.7h1.5V97h-1.5
				V86.7z"/>
			<path class="st6" d="M212.6,97c-2,0-2.8-1-2.8-2.7V88H208v-1.2h1.7v-2.9h1.5v2.9h2.6V88h-2.6v6.3c0,1,0.4,1.5,1.5,1.5h1V97H212.6
				z"/>
			<path class="st6" d="M215.8,92.7V91c0-2.5,1.7-4.5,4.6-4.5s4.6,2,4.6,4.5v1.7c0,2.5-1.7,4.5-4.6,4.5
				C217.5,97.2,215.8,95.2,215.8,92.7z M220.4,87.7c-2,0-3.1,1.4-3.1,3.3v1.6c0,1.9,1.1,3.3,3.1,3.3s3.1-1.4,3.1-3.3V91
				C223.5,89.1,222.4,87.7,220.4,87.7z"/>
			<path class="st6" d="M227.7,86.7h1.4v2.4c0.4-1.6,1.5-2.4,3.3-2.4h0.2v1.4h-0.3c-1.9,0-3.2,1.3-3.2,3.9v5h-1.5V86.7z"/>
			<path class="st6" d="M235.6,83.1c0.6,0,1,0.4,1,0.9s-0.4,0.9-1,0.9s-1-0.4-1-0.9S235,83.1,235.6,83.1z M234.8,86.7h1.5V97h-1.5
				V86.7z"/>
			<path class="st6" d="M239.7,86.7h1.4v1.7c0.5-1.2,1.6-2,3.4-2c2.3,0,3.8,1.6,3.8,4V97h-1.5v-6.2c0-1.7-0.8-2.9-2.6-2.9
				c-1.7,0-3,1-3,3.1v6h-1.5V86.7z"/>
			<path class="st6" d="M251.1,98.1h1.5c0.6,1,1.5,1.4,2.9,1.4c1.8,0,3-1,3-2.6v-2.3c-0.3,0.9-1.7,1.9-3.4,1.9
				c-2.7,0-4.2-1.9-4.2-4.2v-1.7c0-2.3,1.5-4.2,4.2-4.2c1.9,0,3.1,1,3.5,1.9v-1.7h1.5V97c0,2.1-1.9,3.7-4.5,3.7
				C253.5,100.7,251.7,99.8,251.1,98.1z M258.6,92.2v-1.3c0-1.7-1.3-3.2-3.1-3.2c-2,0-3,1.1-3,3.1v1.5c0,1.9,1,3.1,3,3.1
				C257.2,95.3,258.6,94.2,258.6,92.2z"/>
			<path class="st6" d="M274.7,97v-1.3c-0.4,0.7-1.8,1.5-3.5,1.5c-2.4,0-3.9-1.4-3.9-3.2c0-2,1.6-3.2,4.1-3.2c1.6,0,2.7,0.7,3.3,1.3
				v-1.9c0-1.4-0.9-2.5-2.6-2.5c-1.3,0-2.1,0.6-2.6,1.5h-1.4c0.5-1.7,2-2.7,4-2.7c2.5,0,4.1,1.7,4.1,3.7V97H274.7z M274.6,94
				c0-1.3-1.5-2.2-3.1-2.2c-1.7,0-2.8,0.8-2.8,2.2c0,1.4,1.2,2.2,2.8,2.2C273.1,96.2,274.6,95.3,274.6,94z"/>
			<path class="st6" d="M279.3,86.7h1.4v1.7c0.5-1.2,1.6-2,3.4-2c2.3,0,3.8,1.6,3.8,4V97h-1.5v-6.2c0-1.7-0.8-2.9-2.6-2.9
				c-1.7,0-3,1-3,3.1v6h-1.5V86.7z"/>
			<path class="st6" d="M299.7,82.4V97h-1.4v-1.6c-0.4,0.9-1.8,1.8-3.5,1.8c-2.7,0-4.3-2-4.3-4.6v-1.6c0-2.7,1.7-4.6,4.2-4.6
				c1.6,0,2.8,0.7,3.4,1.8v-5.9H299.7z M292,92.6c0,1.9,0.9,3.4,3,3.4c2,0,3.1-1.5,3.1-3.5v-1.3c0-2.1-1.4-3.4-3.1-3.4
				c-1.9,0-3,1.5-3,3.4V92.6z"/>
			<path class="st6" d="M319.7,97h-1.5V86l-3.9,7.6h-1.5L309,86v11h-1.5V83h1.5l4.6,9.2l4.6-9.2h1.5V97z"/>
			<path class="st6" d="M330.1,97v-1.3c-0.4,0.7-1.8,1.5-3.5,1.5c-2.4,0-3.9-1.4-3.9-3.2c0-2,1.6-3.2,4.1-3.2c1.6,0,2.7,0.7,3.3,1.3
				v-1.9c0-1.4-0.9-2.5-2.6-2.5c-1.3,0-2.1,0.6-2.6,1.5h-1.4c0.5-1.7,2-2.7,4-2.7c2.5,0,4.1,1.7,4.1,3.7V97H330.1z M330,94
				c0-1.3-1.5-2.2-3.1-2.2c-1.7,0-2.8,0.8-2.8,2.2c0,1.4,1.2,2.2,2.8,2.2C328.5,96.2,330,95.3,330,94z"/>
			<path class="st6" d="M334.7,86.7h1.4v1.7c0.5-1.2,1.6-2,3.4-2c2.3,0,3.8,1.6,3.8,4V97h-1.5v-6.2c0-1.7-0.8-2.9-2.6-2.9
				c-1.7,0-3,1-3,3.1v6h-1.5V86.7z"/>
			<path class="st6" d="M353.4,97v-1.3c-0.4,0.7-1.8,1.5-3.5,1.5c-2.4,0-3.9-1.4-3.9-3.2c0-2,1.6-3.2,4.1-3.2c1.6,0,2.7,0.7,3.3,1.3
				v-1.9c0-1.4-0.9-2.5-2.6-2.5c-1.3,0-2.1,0.6-2.6,1.5h-1.4c0.5-1.7,2-2.7,4-2.7c2.5,0,4.1,1.7,4.1,3.7V97H353.4z M353.3,94
				c0-1.3-1.5-2.2-3.1-2.2c-1.7,0-2.8,0.8-2.8,2.2c0,1.4,1.2,2.2,2.8,2.2C351.8,96.2,353.3,95.3,353.3,94z"/>
			<path class="st6" d="M357.6,98.1h1.5c0.6,1,1.5,1.4,2.9,1.4c1.8,0,3-1,3-2.6v-2.3c-0.3,0.9-1.7,1.9-3.4,1.9
				c-2.7,0-4.2-1.9-4.2-4.2v-1.7c0-2.3,1.5-4.2,4.2-4.2c1.9,0,3.1,1,3.5,1.9v-1.7h1.5V97c0,2.1-1.9,3.7-4.5,3.7
				C360,100.7,358.2,99.8,357.6,98.1z M365.1,92.2v-1.3c0-1.7-1.3-3.2-3.1-3.2c-2,0-3,1.1-3,3.1v1.5c0,1.9,1,3.1,3,3.1
				C363.7,95.3,365.1,94.2,365.1,92.2z"/>
			<path class="st6" d="M369.3,92.8v-1.6c0-2.8,1.6-4.6,4.5-4.6c2.9,0,4.3,1.9,4.3,4.5v1.5h-7.3v0.4c0,1.8,0.9,3.2,3.1,3.2
				c1.5,0,2.5-0.8,2.8-2h1.4c-0.3,1.8-2,3.1-4.2,3.1C371.2,97.2,369.3,95.5,369.3,92.8z M370.8,91.3h5.9v-0.5c0-1.8-0.9-3.2-2.9-3.2
				c-2.2,0-3,1.5-3,3.3V91.3z"/>
			<path class="st6" d="M380.9,86.7h1.4v1.7c0.5-1.2,1.6-2,3.4-2c1.5,0,2.7,0.8,3.3,2c0.7-1.2,1.9-2,3.7-2c2.2,0,3.7,1.6,3.7,4V97
				h-1.5v-6.2c0-1.7-0.9-2.9-2.5-2.9s-2.9,1-2.9,3.1v6h-1.5v-6.2c0-1.7-0.9-2.9-2.5-2.9c-1.7,0-2.9,1-2.9,3.1v6h-1.5V86.7z"/>
			<path class="st6" d="M399,92.8v-1.6c0-2.8,1.6-4.6,4.5-4.6c2.9,0,4.3,1.9,4.3,4.5v1.5h-7.3v0.4c0,1.8,0.9,3.2,3.1,3.2
				c1.5,0,2.5-0.8,2.8-2h1.4c-0.3,1.8-2,3.1-4.2,3.1C400.9,97.2,399,95.5,399,92.8z M400.5,91.3h5.9v-0.5c0-1.8-0.9-3.2-2.9-3.2
				c-2.2,0-3,1.5-3,3.3V91.3z"/>
			<path class="st6" d="M410.6,86.7h1.4v1.7c0.5-1.2,1.6-2,3.4-2c2.3,0,3.8,1.6,3.8,4V97h-1.5v-6.2c0-1.7-0.8-2.9-2.6-2.9
				c-1.7,0-3,1-3,3.1v6h-1.5V86.7z"/>
			<path class="st6" d="M425.9,97c-2,0-2.8-1-2.8-2.7V88h-1.7v-1.2h1.7v-2.9h1.5v2.9h2.6V88h-2.6v6.3c0,1,0.4,1.5,1.5,1.5h1V97
				H425.9z"/>
		</g>
	</g>
</g>
</svg>
